<?xml version="1.0" encoding="UTF-8"?>
<svg width="700pt" height="700pt" version="1.1" viewBox="0 0 700 700" xmlns="http://www.w3.org/2000/svg" xmlns:xlink="http://www.w3.org/1999/xlink">
 <g>
  <path d="m611.48 280.6c0.14844-4.4805-1.4922-8.9609-4.8516-12.246l-55.926-55.625c-6.4219-6.4219-16.801-6.3477-23.223 0.074219s-6.3477 16.801 0.074219 23.223l27.703 27.625h-450.91c-9.1094 0-16.426 7.3164-16.426 16.426s7.3164 16.426 16.426 16.426h452.03l-28.598 28.598c-6.4219 6.4219-6.4219 16.801 0 23.223 3.2109 3.2109 7.3906 4.7773 11.648 4.7773 4.1797 0 8.4375-1.5664 11.648-4.7773l55.625-55.625c3.2852-3.3633 4.8555-7.7656 4.7812-12.098z"/>
 </g>
</svg>
