<?xml version="1.0" encoding="UTF-8"?>
<svg width="700pt" height="700pt" version="1.1" viewBox="0 0 700 700" xmlns="http://www.w3.org/2000/svg" xmlns:xlink="http://www.w3.org/1999/xlink">
 <defs>
  <symbol id="u" overflow="visible">
   <path d="m2.5-0.15625c-0.125 0.074219-0.26172 0.125-0.40625 0.15625-0.13672 0.03125-0.28125 0.046875-0.4375 0.046875-0.44922 0-0.80859-0.125-1.0781-0.375-0.26172-0.25-0.39062-0.59375-0.39062-1.0312s0.12891-0.78125 0.39062-1.0312c0.26953-0.25 0.62891-0.375 1.0781-0.375 0.15625 0 0.30078 0.015625 0.4375 0.046875 0.14453 0.03125 0.28125 0.085938 0.40625 0.15625v0.5625c-0.125-0.09375-0.25781-0.16016-0.39062-0.20312-0.125-0.039063-0.25781-0.0625-0.39062-0.0625-0.25 0-0.44922 0.085937-0.59375 0.25-0.14844 0.15625-0.21875 0.375-0.21875 0.65625s0.070312 0.50781 0.21875 0.67188c0.14453 0.15625 0.34375 0.23438 0.59375 0.23438 0.13281 0 0.26562-0.019531 0.39062-0.0625 0.13281-0.039063 0.26562-0.10938 0.39062-0.20312z"/>
  </symbol>
  <symbol id="d" overflow="visible">
   <path d="m1.8281-1.4844c-0.054687-0.03125-0.10938-0.050781-0.17188-0.0625-0.054688-0.007813-0.10938-0.015625-0.17188-0.015625-0.16797 0-0.29688 0.058594-0.39062 0.17188-0.085938 0.10547-0.125 0.25781-0.125 0.45312v0.9375h-0.65625v-2.0469h0.65625v0.34375c0.082031-0.13281 0.17578-0.23438 0.28125-0.29688 0.11328-0.0625 0.24219-0.09375 0.39062-0.09375h0.0625c0.03125 0 0.070313 0.007812 0.125 0.015625z"/>
  </symbol>
  <symbol id="a" overflow="visible">
   <path d="m2.3594-1.0312v0.1875h-1.5312c0.007813 0.15625 0.0625 0.27734 0.15625 0.35938 0.10156 0.074219 0.23828 0.10938 0.40625 0.10938 0.13281 0 0.27344-0.019531 0.42188-0.0625 0.14453-0.039062 0.28906-0.10156 0.4375-0.1875v0.5c-0.14844 0.0625-0.29688 0.10547-0.45312 0.125-0.15625 0.03125-0.3125 0.046875-0.46875 0.046875-0.36719 0-0.65234-0.09375-0.85938-0.28125-0.21094-0.1875-0.3125-0.44531-0.3125-0.78125 0-0.33203 0.097656-0.59375 0.29688-0.78125 0.20703-0.19531 0.48828-0.29688 0.84375-0.29688 0.32031 0 0.57812 0.10156 0.76562 0.29688 0.19531 0.1875 0.29688 0.44531 0.29688 0.76562zm-0.67188-0.21875c0-0.11328-0.039062-0.20703-0.10938-0.28125-0.074219-0.082031-0.16797-0.125-0.28125-0.125-0.13672 0-0.24609 0.039062-0.32812 0.10938-0.074219 0.074219-0.12109 0.17188-0.14062 0.29688z"/>
  </symbol>
  <symbol id="j" overflow="visible">
   <path d="m1.2344-0.92188c-0.13672 0-0.24219 0.027344-0.3125 0.078125-0.074219 0.042969-0.10938 0.10938-0.10938 0.20312 0 0.085937 0.023438 0.15234 0.078125 0.20312 0.0625 0.042969 0.14062 0.0625 0.23438 0.0625 0.125 0 0.22656-0.039062 0.3125-0.125 0.082031-0.09375 0.125-0.20703 0.125-0.34375v-0.078125zm0.98438-0.25v1.1719h-0.65625v-0.29688c-0.085938 0.125-0.18359 0.21484-0.29688 0.26562-0.10547 0.050781-0.23438 0.078125-0.39062 0.078125-0.21094 0-0.38281-0.054688-0.51562-0.17188-0.13672-0.125-0.20312-0.28516-0.20312-0.48438 0-0.23828 0.082031-0.41406 0.25-0.53125 0.16406-0.11328 0.42578-0.17188 0.78125-0.17188h0.375v-0.046875c0-0.10156-0.042969-0.17578-0.125-0.21875-0.074219-0.050781-0.19922-0.078125-0.375-0.078125-0.13672 0-0.26562 0.015625-0.39062 0.046875-0.11719 0.023437-0.22656 0.0625-0.32812 0.125v-0.5c0.13281-0.03125 0.26953-0.054687 0.40625-0.078125 0.14453-0.019531 0.28906-0.03125 0.4375-0.03125 0.36328 0 0.625 0.074219 0.78125 0.21875 0.16406 0.14844 0.25 0.38281 0.25 0.70312z"/>
  </symbol>
  <symbol id="c" overflow="visible">
   <path d="m1.0312-2.625v0.57812h0.67188v0.46875h-0.67188v0.875c0 0.09375 0.015625 0.15625 0.046875 0.1875 0.039063 0.03125 0.11719 0.046875 0.23438 0.046875h0.32812v0.46875h-0.5625c-0.25 0-0.43359-0.050781-0.54688-0.15625-0.10547-0.11328-0.15625-0.29688-0.15625-0.54688v-0.875h-0.32812v-0.46875h0.32812v-0.57812z"/>
  </symbol>
  <symbol id="i" overflow="visible">
   <path d="m1.7031-1.75v-1.0938h0.65625v2.8438h-0.65625v-0.29688c-0.09375 0.125-0.19531 0.21484-0.29688 0.26562-0.10547 0.050781-0.23047 0.078125-0.375 0.078125-0.25 0-0.46094-0.097656-0.625-0.29688-0.15625-0.19531-0.23438-0.45312-0.23438-0.76562s0.078125-0.56641 0.23438-0.76562c0.16406-0.20703 0.375-0.3125 0.625-0.3125 0.13281 0 0.25391 0.03125 0.35938 0.09375 0.11328 0.054688 0.21875 0.13672 0.3125 0.25zm-0.4375 1.3281c0.14453 0 0.25391-0.050781 0.32812-0.15625 0.070312-0.10156 0.10938-0.25 0.10938-0.4375 0-0.19531-0.039063-0.34766-0.10938-0.45312-0.074219-0.10156-0.18359-0.15625-0.32812-0.15625-0.13672 0-0.24219 0.054688-0.3125 0.15625-0.074219 0.10547-0.10938 0.25781-0.10938 0.45312 0 0.1875 0.035156 0.33594 0.10938 0.4375 0.070313 0.10547 0.17578 0.15625 0.3125 0.15625z"/>
  </symbol>
  <symbol id="h" overflow="visible">
   <path d="m1.4062-0.42188c0.13281 0 0.23828-0.050781 0.3125-0.15625 0.070312-0.10156 0.10938-0.25 0.10938-0.4375 0-0.19531-0.039063-0.34766-0.10938-0.45312-0.074219-0.10156-0.17969-0.15625-0.3125-0.15625-0.14844 0-0.25781 0.054688-0.32812 0.15625-0.074219 0.10547-0.10938 0.25781-0.10938 0.45312 0 0.1875 0.035156 0.33594 0.10938 0.4375 0.070313 0.10547 0.17969 0.15625 0.32812 0.15625zm-0.4375-1.3281c0.082031-0.11328 0.17578-0.19531 0.28125-0.25 0.11328-0.0625 0.24219-0.09375 0.39062-0.09375 0.25 0 0.45312 0.10547 0.60938 0.3125 0.16406 0.19922 0.25 0.45312 0.25 0.76562s-0.085938 0.57031-0.25 0.76562c-0.15625 0.19922-0.35938 0.29688-0.60938 0.29688-0.14844 0-0.27734-0.027344-0.39062-0.078125-0.10547-0.050781-0.19922-0.14062-0.28125-0.26562v0.29688h-0.65625v-2.8438h0.65625z"/>
  </symbol>
  <symbol id="e" overflow="visible">
   <path d="m0.046875-2.0469h0.65625l0.54688 1.3906 0.46875-1.3906h0.64062l-0.84375 2.2344c-0.09375 0.22656-0.19922 0.39062-0.3125 0.48438-0.11719 0.09375-0.26562 0.14062-0.45312 0.14062h-0.375v-0.4375h0.20312c0.11328 0 0.19141-0.023438 0.23438-0.0625 0.050781-0.03125 0.09375-0.089844 0.125-0.17188l0.015625-0.0625z"/>
  </symbol>
  <symbol id="g" overflow="visible">
   <path d="m0.34375-2.7188h0.70312v2.4531c0 0.34375-0.09375 0.59766-0.28125 0.76562-0.17969 0.16406-0.45312 0.25-0.82812 0.25h-0.14062v-0.53125h0.10938c0.14453 0 0.25391-0.042969 0.32812-0.125 0.070313-0.085938 0.10938-0.20312 0.10938-0.35938z"/>
  </symbol>
  <symbol id="b" overflow="visible">
   <path d="m1.2812-1.625c-0.14844 0-0.25781 0.054688-0.32812 0.15625-0.074219 0.10547-0.10938 0.25781-0.10938 0.45312 0 0.19922 0.035156 0.35156 0.10938 0.45312 0.070313 0.10547 0.17969 0.15625 0.32812 0.15625 0.14453 0 0.25391-0.050781 0.32812-0.15625 0.070313-0.10156 0.10938-0.25391 0.10938-0.45312 0-0.19531-0.039062-0.34766-0.10938-0.45312-0.074219-0.10156-0.18359-0.15625-0.32812-0.15625zm0-0.46875c0.35156 0 0.62891 0.10156 0.82812 0.29688 0.19531 0.1875 0.29688 0.44922 0.29688 0.78125 0 0.33594-0.10156 0.59375-0.29688 0.78125-0.19922 0.1875-0.47656 0.28125-0.82812 0.28125-0.35547 0-0.63281-0.09375-0.82812-0.28125-0.19922-0.1875-0.29688-0.44531-0.29688-0.78125 0-0.33203 0.097656-0.59375 0.29688-0.78125 0.19531-0.19531 0.47266-0.29688 0.82812-0.29688z"/>
  </symbol>
  <symbol id="t" overflow="visible">
   <path d="m0.3125-2.8438h0.65625v2.8438h-0.65625z"/>
  </symbol>
  <symbol id="f" overflow="visible">
   <path d="m2.3594-1.25v1.25h-0.65625v-0.95312c0-0.17578-0.007813-0.29688-0.015625-0.35938 0-0.070312-0.011719-0.125-0.03125-0.15625-0.023438-0.039062-0.058594-0.070312-0.10938-0.09375-0.042969-0.019531-0.089844-0.03125-0.14062-0.03125-0.13672 0-0.24609 0.054688-0.32812 0.15625-0.074219 0.10547-0.10938 0.25-0.10938 0.4375v1h-0.65625v-2.0469h0.65625v0.29688c0.09375-0.11328 0.19531-0.19531 0.3125-0.25 0.11328-0.0625 0.23438-0.09375 0.35938-0.09375 0.23828 0 0.41406 0.074219 0.53125 0.21875 0.125 0.14844 0.1875 0.35547 0.1875 0.625z"/>
  </symbol>
  <symbol id="s" overflow="visible">
   <path d="m0.34375-2.7188h0.89062l0.625 1.4531 0.625-1.4531h0.89062v2.7188h-0.67188v-1.9844l-0.625 1.4688h-0.4375l-0.625-1.4688v1.9844h-0.67188z"/>
  </symbol>
  <symbol id="r" overflow="visible">
   <path d="m1.6562-2.8438v0.4375h-0.35938c-0.09375 0-0.16406 0.015625-0.20312 0.046875-0.03125 0.03125-0.046875 0.089844-0.046875 0.17188v0.14062h0.5625v0.46875h-0.5625v1.5781h-0.65625v-1.5781h-0.3125v-0.46875h0.3125v-0.14062c0-0.21875 0.0625-0.37891 0.1875-0.48438 0.125-0.11328 0.31641-0.17188 0.57812-0.17188z"/>
  </symbol>
  <symbol id="q" overflow="visible">
   <path d="m2.2031-1.7031c0.082031-0.125 0.17969-0.21875 0.29688-0.28125 0.11328-0.070313 0.23828-0.10938 0.375-0.10938 0.23828 0 0.41406 0.074219 0.53125 0.21875 0.125 0.14844 0.1875 0.35547 0.1875 0.625v1.25h-0.65625v-1.0625-0.046875-0.078125c0-0.14453-0.023438-0.25-0.0625-0.3125-0.042969-0.0625-0.10938-0.09375-0.20312-0.09375-0.125 0-0.22656 0.054688-0.29688 0.15625-0.0625 0.09375-0.09375 0.24219-0.09375 0.4375v1h-0.65625v-1.0625c0-0.22656-0.023438-0.375-0.0625-0.4375-0.03125-0.0625-0.10156-0.09375-0.20312-0.09375-0.125 0-0.22656 0.054688-0.29688 0.15625-0.0625 0.09375-0.09375 0.24219-0.09375 0.4375v1h-0.65625v-2.0469h0.65625v0.29688c0.082031-0.11328 0.17578-0.19531 0.28125-0.25 0.10156-0.0625 0.21875-0.09375 0.34375-0.09375 0.13281 0 0.25391 0.039062 0.35938 0.10938 0.11328 0.0625 0.19531 0.15625 0.25 0.28125z"/>
  </symbol>
  <symbol id="p" overflow="visible">
   <path d="m2.3594-1.25v1.25h-0.65625v-0.95312c0-0.17578-0.007813-0.29688-0.015625-0.35938 0-0.070312-0.011719-0.125-0.03125-0.15625-0.023438-0.039062-0.058594-0.070312-0.10938-0.09375-0.042969-0.019531-0.089844-0.03125-0.14062-0.03125-0.13672 0-0.24609 0.054688-0.32812 0.15625-0.074219 0.10547-0.10938 0.25-0.10938 0.4375v1h-0.65625v-2.8438h0.65625v1.0938c0.09375-0.11328 0.19531-0.19531 0.3125-0.25 0.11328-0.0625 0.23438-0.09375 0.35938-0.09375 0.23828 0 0.41406 0.074219 0.53125 0.21875 0.125 0.14844 0.1875 0.35547 0.1875 0.625z"/>
  </symbol>
  <symbol id="o" overflow="visible">
   <path d="m0.34375-2.7188h0.78125l0.98438 1.8594v-1.8594h0.67188v2.7188h-0.78125l-0.98438-1.875v1.875h-0.67188z"/>
  </symbol>
  <symbol id="n" overflow="visible">
   <path d="m0.29688-0.79688v-1.25h0.65625v0.20312c0 0.11719-0.007813 0.25781-0.015625 0.42188v0.32812c0 0.16797 0.003906 0.28906 0.015625 0.35938 0.007813 0.074219 0.023437 0.125 0.046875 0.15625 0.03125 0.042969 0.066406 0.078125 0.10938 0.10938 0.039063 0.023438 0.085937 0.03125 0.14062 0.03125 0.13281 0 0.23828-0.050781 0.3125-0.15625 0.082031-0.10156 0.125-0.25 0.125-0.4375v-1.0156h0.65625v2.0469h-0.65625v-0.29688c-0.09375 0.125-0.19922 0.21484-0.3125 0.26562-0.10547 0.050781-0.22656 0.078125-0.35938 0.078125-0.24219 0-0.42188-0.066406-0.54688-0.20312-0.11719-0.14453-0.17188-0.35938-0.17188-0.64062z"/>
  </symbol>
  <symbol id="m" overflow="visible">
   <path d="m0.34375-2.7188h1.1719c0.34375 0 0.60156 0.078125 0.78125 0.23438 0.1875 0.14844 0.28125 0.36719 0.28125 0.65625 0 0.28125-0.09375 0.5-0.28125 0.65625-0.17969 0.15625-0.4375 0.23438-0.78125 0.23438h-0.46875v0.9375h-0.70312zm0.70312 0.5v0.76562h0.39062c0.13281 0 0.23828-0.03125 0.3125-0.09375 0.070312-0.070313 0.10938-0.16406 0.10938-0.28125 0-0.125-0.039063-0.21875-0.10938-0.28125-0.074219-0.070313-0.17969-0.10938-0.3125-0.10938z"/>
  </symbol>
  <symbol id="l" overflow="visible">
   <path d="m0.3125-2.0469h0.65625v2.0156c0 0.26953-0.070312 0.47656-0.20312 0.625-0.125 0.14453-0.3125 0.21875-0.5625 0.21875h-0.32812v-0.4375h0.10938c0.125 0 0.20703-0.03125 0.25-0.09375 0.050781-0.054688 0.078125-0.15625 0.078125-0.3125zm0-0.79688h0.65625v0.53125h-0.65625z"/>
  </symbol>
  <symbol id="k" overflow="visible">
   <path d="m1.9688-1.9844v0.53125c-0.09375-0.050781-0.1875-0.09375-0.28125-0.125-0.085938-0.03125-0.17188-0.046875-0.26562-0.046875-0.1875 0-0.33594 0.054688-0.4375 0.15625-0.09375 0.10547-0.14062 0.25781-0.14062 0.45312 0 0.1875 0.046875 0.33984 0.14062 0.45312 0.10156 0.10547 0.25 0.15625 0.4375 0.15625 0.10156 0 0.19531-0.015625 0.28125-0.046875 0.09375-0.03125 0.17969-0.078125 0.26562-0.14062v0.53125c-0.10547 0.042969-0.21094 0.066406-0.3125 0.078125-0.10547 0.019531-0.21094 0.03125-0.3125 0.03125-0.375 0-0.66797-0.09375-0.875-0.28125-0.21094-0.1875-0.3125-0.44531-0.3125-0.78125 0-0.34375 0.10156-0.60938 0.3125-0.79688 0.20703-0.1875 0.5-0.28125 0.875-0.28125 0.10156 0 0.20703 0.011719 0.3125 0.03125 0.10156 0.023438 0.20703 0.046875 0.3125 0.078125z"/>
  </symbol>
 </defs>
 <g>
  <path d="m611.48 280.6c0.14844-4.4805-1.4922-8.9609-4.8516-12.246l-55.926-55.625c-6.4219-6.4219-16.801-6.3477-23.223 0.074219s-6.3477 16.801 0.074219 23.223l27.703 27.625h-450.91c-9.1094 0-16.426 7.3164-16.426 16.426s7.3164 16.426 16.426 16.426h452.03l-28.598 28.598c-6.4219 6.4219-6.4219 16.801 0 23.223 3.2109 3.2109 7.3906 4.7773 11.648 4.7773 4.1797 0 8.4375-1.5664 11.648-4.7773l55.625-55.625c3.2852-3.3633 4.8555-7.7656 4.7812-12.098z"/>
  <use x="70" y="571.199219" xlink:href="#u"/>
  <use x="72.738281" y="571.199219" xlink:href="#d"/>
  <use x="74.582031" y="571.199219" xlink:href="#a"/>
  <use x="77.113281" y="571.199219" xlink:href="#j"/>
  <use x="79.632812" y="571.199219" xlink:href="#c"/>
  <use x="81.417969" y="571.199219" xlink:href="#a"/>
  <use x="83.949219" y="571.199219" xlink:href="#i"/>
  <use x="87.921875" y="571.199219" xlink:href="#h"/>
  <use x="90.59375" y="571.199219" xlink:href="#e"/>
  <use x="94.328125" y="571.199219" xlink:href="#g"/>
  <use x="95.714844" y="571.199219" xlink:href="#b"/>
  <use x="98.28125" y="571.199219" xlink:href="#a"/>
  <use x="100.8125" y="571.199219" xlink:href="#t"/>
  <use x="102.09375" y="571.199219" xlink:href="#a"/>
  <use x="104.625" y="571.199219" xlink:href="#a"/>
  <use x="107.15625" y="571.199219" xlink:href="#f"/>
  <use x="111.113281" y="571.199219" xlink:href="#s"/>
  <use x="114.828125" y="571.199219" xlink:href="#b"/>
  <use x="117.394531" y="571.199219" xlink:href="#e"/>
  <use x="70" y="574.933594" xlink:href="#r"/>
  <use x="71.625" y="574.933594" xlink:href="#d"/>
  <use x="73.464844" y="574.933594" xlink:href="#b"/>
  <use x="76.03125" y="574.933594" xlink:href="#q"/>
  <use x="81.21875" y="574.933594" xlink:href="#c"/>
  <use x="83.003906" y="574.933594" xlink:href="#p"/>
  <use x="85.664062" y="574.933594" xlink:href="#a"/>
  <use x="89.496094" y="574.933594" xlink:href="#o"/>
  <use x="92.617188" y="574.933594" xlink:href="#b"/>
  <use x="95.183594" y="574.933594" xlink:href="#n"/>
  <use x="97.839844" y="574.933594" xlink:href="#f"/>
  <use x="101.800781" y="574.933594" xlink:href="#m"/>
  <use x="104.535156" y="574.933594" xlink:href="#d"/>
  <use x="106.375" y="574.933594" xlink:href="#b"/>
  <use x="108.941406" y="574.933594" xlink:href="#l"/>
  <use x="110.222656" y="574.933594" xlink:href="#a"/>
  <use x="112.753906" y="574.933594" xlink:href="#k"/>
  <use x="114.964844" y="574.933594" xlink:href="#c"/>
 </g>
</svg>
