<svg width="200" height="315" viewBox="0 0 200 315" fill="none" xmlns="http://www.w3.org/2000/svg">
<path d="M124.5 167.5C125.5 169 128.5 171.9 132.5 171.5" stroke="black"/>
<path d="M158 179C163.167 170 171.5 140.1 163.5 92.5H191.5" stroke="black"/>
<path d="M165.5 104H193" stroke="black"/>
<path d="M117 75C122 81.5 133.4 94.9 139 96.5" stroke="black"/>
<path d="M131.5 69L167 34.5L185.5 1.49997C187.333 0.833305 191.3 1.09997 192.5 7.49997C194 4.49996 197.3 0.299949 198.5 7.49997C195 16.3333 187.5 36.3 185.5 45.5L189 91" stroke="black"/>
<path d="M1 312.5C2.16667 262.833 29.3 144 128.5 66L148.5 88C131 104.5 95.3 139.3 92.5 146.5" stroke="black"/>
<path d="M192.5 91C194.667 116.5 197.1 174.2 189.5 201C181.9 227.8 150 267.167 135 283.5L122.5 313" stroke="black"/>
<path d="M75.5 182.5V195.5M75.5 195.5L68.5 198L75.5 226.5C81.6667 225.5 94.2 222.6 95 219C96 214.5 89 218.5 75.5 195.5ZM97.5 219C93.5 241.333 82.1 291.6 68.5 314" stroke="black"/>
<path d="M104.5 236C101.3 238.4 99.8333 226 99.5 219.5H123L127 223.5C120.833 226.667 107.7 233.6 104.5 236Z" stroke="black"/>
<path d="M148.5 86.5L167 66.5C174.167 48.6667 189.2 11.6 192 6" stroke="black"/>
<path d="M170 92C170 88.5 169.4 78.4 167 66" stroke="black"/>
<path d="M123 190.5V217.5C124.667 217.667 129.3 216.8 134.5 212" stroke="black"/>
<path d="M79.5 201C81.1667 200 85.2 197.1 88 193.5" stroke="black"/>
<path d="M109.5 177.5C112 181.333 118.1 189.3 122.5 190.5" stroke="black"/>
<path d="M133 142.5C128 142.667 116.7 146.4 111.5 160C110.833 156 107.8 149 101 153C99.5 155 98.2 160 105 164C105.5 167.833 105.4 176.2 101 179V191C97.6667 192.167 90.4 194.4 88 194C85 193.5 88.5 180.5 68 179C67.4747 178.962 66.975 178.925 66.5 178.89V179C60.3695 178.516 52.1465 177.845 66.5 178.89V170.5C63.8333 170.5 58.3 168.4 57.5 160C57.5 158.667 58.2 156 61 156C63.8 156 62.1667 155.333 61 155C61.3333 150.833 64 142.5 72 142.5C82 142.5 101 158 126.5 133C136.5 134.167 155.9 139.5 153.5 151.5C151.167 157.833 147.2 171.1 150 173.5C153.5 176.5 157.5 182 165.5 186.5V203.5C163 203.333 156.7 204.7 151.5 211.5C149.333 210.833 140.8 209.5 124 209.5V189.5C128.667 189 139.9 181.6 147.5 156C143.333 152.5 134.6 144.9 133 142.5Z" fill="black"/>
<path d="M133 142.5C128 142.667 116.7 146.4 111.5 160C110.833 156 107.8 149 101 153C99.5 155 98.2 160 105 164C105.5 167.833 105.4 176.2 101 179V191C97.6667 192.167 90.4 194.4 88 194C85 193.5 88.5 180.5 68 179C51.6 177.8 60.1667 178.5 66.5 179V170.5C63.8333 170.5 58.3 168.4 57.5 160C57.5 158.667 58.2 156 61 156C63.8 156 62.1667 155.333 61 155C61.3333 150.833 64 142.5 72 142.5C82 142.5 101 158 126.5 133C136.5 134.167 155.9 139.5 153.5 151.5C151.167 157.833 147.2 171.1 150 173.5C153.5 176.5 157.5 182 165.5 186.5V203.5C163 203.333 156.7 204.7 151.5 211.5C149.333 210.833 140.8 209.5 124 209.5V189.5C128.667 189 139.9 181.6 147.5 156C143.333 152.5 134.6 144.9 133 142.5Z" stroke="black"/>
<path d="M124 154.5C125.667 153.667 129.6 152.5 132 154.5" stroke="black"/>
<path d="M140 156.5C140.5 158 142.3 160.9 145.5 160.5" stroke="black"/>
<path d="M134.589 166.171L130.494 168.237L130.36 164.395L134.589 166.171Z" fill="black"/>
<path d="M124.5 168.5V175.5H130C129.5 174.667 128.8 172.7 130 171.5" stroke="black"/>
</svg>
