<svg width="486" height="454" viewBox="0 0 486 454" fill="none" xmlns="http://www.w3.org/2000/svg">
<path d="M239.194 54.6457C238.518 47.2127 239.194 31.3332 239.194 31.3332C239.194 31.3332 248.316 11.0614 276.696 13.0885C283.454 3.96624 300.414 -8.80498 314.199 13.0885C314.875 19.508 313.794 34.1712 304.063 41.4691C301.023 42.1448 291.495 43.2935 277.71 42.4827C283.116 36.739 291.292 24.4408 280.751 21.1973C273.993 20.5215 256.222 26.2652 239.194 54.6457Z" fill="black" stroke="black"/>
<path d="M258.452 95.1893C262.168 100.595 272.845 110.799 285.819 108.366M285.819 108.366L297.982 142.828M285.819 108.366C292.576 107.015 306.293 92.1485 307.104 43.4962" stroke="black" stroke-width="2"/>
<path d="M239.194 54.6457C236.153 51.9428 229.463 47.3479 227.03 50.5914C223.99 54.6457 216.895 62.7544 234.126 76.9447L227.03 141.814C189.528 150.261 111.887 170.195 101.345 182.358C88.1687 197.562 73.9784 199.589 10.1223 320.206" stroke="black" stroke-width="2"/>
<path d="M1 349.6V325.274H91.2095L28.3669 349.6H1Z" stroke="black" stroke-width="2"/>
<path d="M8.09513 349.6L1 430.687" stroke="black" stroke-width="2"/>
<path d="M126.685 435.755L273.656 343.519" stroke="black" stroke-width="2"/>
<path d="M136.821 314.125C163.174 311.76 234.126 315.746 307.104 350.614C337.512 361.088 407.247 380.616 442.925 374.94C487.523 367.845 495.632 315.138 469.278 265.472L186.487 261.418C169.932 264.121 136.821 278.446 136.821 314.125ZM136.821 314.125C131.259 314.76 124.697 316.133 117.563 318.011M30.3941 350.614C49.4091 341.921 88.2987 325.716 117.563 318.011M124.658 275.608L117.563 318.011M286.832 261.418C308.793 253.647 352.918 242.768 353.729 261.418" stroke="black" stroke-width="2"/>
<path d="M220.949 142.828C229.395 165.465 251.762 210.13 273.656 207.698C283.116 206.346 301.225 191.48 297.982 142.828C319.267 140.801 366.906 137.963 387.178 142.828C405.422 163.776 443.533 210.536 450.02 229.997M395.286 264.459C415.896 252.296 458.737 228.375 465.224 229.997C473.333 232.024 475.36 261.418 470.292 264.459C466.238 266.891 418.599 265.472 395.286 264.459Z" stroke="black" stroke-width="2"/>
<path d="M415.558 376.967V454" stroke="black" stroke-width="2"/>
<ellipse cx="268.588" cy="51.605" rx="7.09513" ry="4.05436" transform="rotate(4 268.588 51.605)" fill="black"/>
<ellipse cx="292.914" cy="51.605" rx="7.09513" ry="4.05436" transform="rotate(-4 292.914 51.605)" fill="black"/>
<path d="M273.656 66.9382C277.71 68.4433 285.819 69.1055 285.819 59.7137" stroke="black" stroke-width="2"/>
</svg>
